<?xml version="1.0" encoding="UTF-8" standalone="no"?>
<svg
   version="1.0"
   width="262.000000pt"
   height="177.000000pt"
   viewBox="0 0 262.000000 177.000000"
   preserveAspectRatio="xMidYMid meet"
   id="svg1"
   sodipodi:docname="logo-bas.svg"
   inkscape:version="1.3 (0e150ed6c4, 2023-07-21)"
   xmlns:inkscape="http://www.inkscape.org/namespaces/inkscape"
   xmlns:sodipodi="http://sodipodi.sourceforge.net/DTD/sodipodi-0.dtd"
   xmlns="http://www.w3.org/2000/svg"
   xmlns:svg="http://www.w3.org/2000/svg">
  <defs
     id="defs1" />
  <sodipodi:namedview
     id="namedview1"
     pagecolor="#ffffff"
     bordercolor="#000000"
     borderopacity="0.25"
     inkscape:showpageshadow="2"
     inkscape:pageopacity="0.0"
     inkscape:pagecheckerboard="0"
     inkscape:deskcolor="#d1d1d1"
     inkscape:document-units="pt"
     inkscape:zoom="1.7032443"
     inkscape:cx="174.66667"
     inkscape:cy="118.01008"
     inkscape:window-width="1350"
     inkscape:window-height="720"
     inkscape:window-x="84"
     inkscape:window-y="62"
     inkscape:window-maximized="0"
     inkscape:current-layer="svg1" />
  <g
     transform="translate(0.000000,177.000000) scale(0.100000,-0.100000)"
     fill="#000000"
     stroke="none"
     id="g1"
     style="fill:#00ff9d;fill-opacity:1">
    <path
       d="M1213 1504 c-70 -115 -848 -1392 -866 -1422 l-19 -32 180 0 179 0 239 425 239 426 27 -98 c15 -54 28 -108 28 -119 0 -12 -78 -149 -174 -306 -95 -156 -179 -294 -185 -306 l-12 -22 179 0 178 0 49 88 c85 153 75 149 106 34 15 -55 30 -105 34 -111 10 -17 329 -15 323 2 -3 6 -45 139 -93 293 l-88 282 74 132 73 131 56 -208 c31 -114 82 -306 115 -426 l58 -217 165 0 c127 0 163 3 159 13 -4 12 -410 1299 -449 1427 -19 60 -21 63 -35 45 -8 -11 -84 -136 -170 -277 -86 -142 -158 -256 -160 -254 -2 1 -40 119 -84 262 -45 142 -85 265 -89 273 -5 9 -16 -1 -37 -35z"
       id="path1"
       style="fill:#00ff9d;fill-opacity:1" />
  </g>
</svg>
